<?xml version="1.0" encoding="utf-8"?><svg xmlns="http://www.w3.org/2000/svg" xmlns:xlink="http://www.w3.org/1999/xlink"><symbol viewBox="0 0 473 473" id="safari-pinned-tab" xmlns="http://www.w3.org/2000/svg"><path d="M296.6 10.2c-2.1 3-2 5.4.3 7.7 2 2 1.8 2.3-12.5 34.8-8 18-15.5 35-16.6 37.8-2.9 6.8-3.2 7.1-8.4 8.4-2.5.7-11.4 4.7-19.7 9-16.9 8.7-23.9 11.4-34.1 13.2-7.7 1.3-20.4.7-28.1-1.5-8.1-2.2-22.1-8.5-31.1-14.1-2.6-1.7-14.1-6.5-16.8-7.2-5.5-1.3-17.2-1.4-22.8-.3-23.3 4.5-43.3 25-51.2 52.3-4.4 15-5 30-2.2 51.2 2 14.8 7 28.5 19.1 52.8 8.2 16.4 11.7 25.1 13.1 32.2.2 1.1.6 3.1.8 4.5 1.1 5.8 1.6 10.4 2.1 22.1 1.5 35.3 4.7 52.1 14.7 77.8 12 30.8 27.6 53.9 44.2 65.5 7.7 5.3 10.7 6.6 15.7 6.6 9.4 0 15.5-7.2 18.8-22.5 1.7-7.5 2.1-16 2-38.5-.3-52.1-.2-59.9 1.7-74 1.6-12.3 6.8-28 9.3-28 3.1 0 7.3 11.5 9.6 26.5.3 1.6.8 4.6 1.1 6.5.4 1.9.7 24.9.9 51 .1 26.1.5 49.1.9 51 2.8 14.2 6.4 22.5 11.2 25.7 4.5 2.9 11.7 2.9 17.6 0 12.3-6.1 26.2-20.9 36.4-38.9 12.5-21.9 22.9-50.4 25.9-70.8.4-2.4.8-4.7 1-5 .5-.8 1.4-12.3 2-24.5 1.7-35.7 2.9-40.3 17.8-70 8.9-17.8 12.8-27.6 15.4-38.5 2.4-10.2 2.2-9 3.8-25 .2-1.4.3-5.3.4-8.8.1-3.5.5-6.2 1.1-6.2.6 0 4.9-1.8 9.6-4 4.7-2.2 8.8-4 9-4 .2 0 2.7-1.1 5.6-2.4 14-6.4 52.9-23.6 53.4-23.6.3 0 1.4 1 2.3 2.1 2.6 3.2 6.7 3.3 9.1.2 2.6-3.3 2.5-4.6-.2-7.7-1.9-2.2-2.8-2.5-5.3-1.8-1.7.4-3.4 1.8-4 3.1-1 2.2-1.3 2.2-8.8 1.6-4.3-.3-8.4-.8-9-1-.7-.2-4.6-.6-8.7-1-8.3-.6-15-1.3-19.5-2-1.6-.2-6.4-.7-10.5-1.1-4.1-.3-7.6-.8-7.8-.9-.1-.1 5.3-14.4 12.1-31.6 6.8-17.3 13.4-34.1 14.7-37.5l2.4-6.1 4.1.4c2.9.4 4.6 0 6.3-1.3 7.4-6.2-1.1-18-9.8-13.4-2.5 1.4-4.2 6.5-3 9.6.8 2 .6 2.6-.8 3.1-3.2 1.1-31.7 12.4-33.7 13.3-1.1.5-8.3 3.3-16 6.3-7.7 3-16.3 6.4-19.1 7.5l-5.2 2.1-1.1-9.2c-.6-5.1-1.3-12.1-1.6-15.7-.3-3.6-.8-7.9-1-9.5-.5-3.3-1-8.1-2.1-19.5-.3-4.1-.8-7.8-1.1-8.3-.2-.4.4-.7 1.5-.7 4.7 0 7.3-8.8 3.3-11-3.2-1.7-6.9-1.2-8.5 1.2zm-166.1 97.3c2.8 1 8.3 3.5 12.4 5.7 25.4 13.7 35.8 17 53.1 17 14.5 0 23.9-2.9 47.5-14.7 9.4-4.6 18.4-8.7 20-9 2.8-.5 4.7 1.2 34.8 31.3l31.8 31.8.1 10c.1 8.6-.9 18.3-2.7 27.4-.6 3.1-4.9 17.6-6.4 21.4-.6 1.5-5.6 11.9-11.1 23-9.6 19.5-13.2 29.4-14.5 40.1-.4 2.7-.8 6.1-1 7.5-.3 1.4-.7 8.1-1 15-1 23.7-2.4 35-6.1 49.5-4.8 19.3-16.9 47-27.1 62.4-11.1 16.8-28.5 30.8-35.1 28.5-3.5-1.2-6.8-8-8.8-17.9-1.2-6.3-1.5-14.1-1.4-36 .3-37.8.1-54-.5-60.3-.3-2.8-.8-7.8-1.1-11-1.3-12.7-6.2-28.6-10.7-34.3-2.2-2.8-5.7-4.1-9.3-3.4-4.6.8-8.7 6.5-11.9 16.6-2.3 7.2-3.1 11.4-5.1 25.4-.4 2.7-.8 25.5-.9 50.5-.1 25-.5 47.5-.9 50-2.3 14.4-6.9 21.8-12.7 20.6-5.7-1.1-14-7.6-25.6-20-3-3.3-10.9-16.2-15.9-25.8-8.7-17-15.5-35.9-18.9-52.4-1.4-6.8-1.8-9.2-2.9-17.7-.3-1.7-.8-8.4-1.1-14.7-1.2-22-1.4-24.5-2-29.5-1.9-15-4.9-23.3-17.6-48.5-7.7-15.5-11.8-25.4-13.5-33.1-6-26.5-5.4-49.4 1.8-67.9 5.9-15 16.8-27.6 29.8-34.4 3.8-2 7-3.5 7-3.3 0 .3 1.7-.1 3.7-.8 4.9-1.7 17.5-1.2 23.8 1z"/></symbol><symbol viewBox="0 0 0 0" id="symbol--sprite" xmlns="http://www.w3.org/2000/svg"/></svg>